<?xml version="1.0" standalone="no"?><!DOCTYPE svg PUBLIC "-//W3C//DTD SVG 1.1//EN" "http://www.w3.org/Graphics/SVG/1.1/DTD/svg11.dtd"><svg t="1714703481288" class="icon" viewBox="0 0 1024 1024" version="1.1" xmlns="http://www.w3.org/2000/svg" p-id="6414" width="128" height="128" xmlns:xlink="http://www.w3.org/1999/xlink"><path d="M260.7 431.1h60.4v258.2h-60.4zM634.3 795.5l-190.9-88.4c-8.1-3.7-13.2-11.5-13.2-19.9V442.4c0-8.5 5.1-16.2 13.2-19.9l190.9-88.4c15.6-7.2 33.9 3.5 33.9 19.9v421.5c0 16.5-18.3 27.2-33.9 20z" fill="#25B195" p-id="6415"></path><path d="M290.5 709.4h-50.3c-26.6 0-48.2-21.6-48.2-48.2V407.8c0-26.6 21.6-48.2 48.2-48.2h50.3c26.6 0 48.2 21.6 48.2 48.2v253.4c-0.1 26.6-21.7 48.2-48.2 48.2z m-50.4-317.7c-8.9 0-16.1 7.2-16.1 16.1v253.4c0 8.9 7.2 16.1 16.1 16.1h50.3c8.9 0 16.1-7.2 16.1-16.1V407.8c0-8.9-7.2-16.1-16.1-16.1h-50.3zM644 815c-7.1 0-14.2-1.4-20.8-4.1l-236.8-98.6c-17.7-7.4-29.1-23.6-29.1-41.3V398.1c0-17.8 11.4-34 29.1-41.3l236.8-98.6c16.5-6.9 35.7-5.1 50.3 4.7 12.9 8.6 20.3 22 20.3 36.6v470.1c0 14.7-7.4 28-20.3 36.6-8.7 5.8-19.1 8.8-29.5 8.8z m0-519.6c-1.6 0-3.2 0.3-4.9 1L402.3 395c-2.7 1.1-3.6 2.7-3.6 3.1V671c0 0.4 0.9 2 3.6 3.1l236.8 98.6c4.3 1.8 8.9 0.8 11.5-0.9 0.9-0.6 1.9-1.6 1.9-2.2V299.5c0-0.7-1-1.6-1.9-2.2-1.6-1.1-4-1.9-6.6-1.9zM718.4 517h149.1v41.9H718.4zM725.412 383.092L830.84 277.663l29.628 29.628L755.039 412.72zM755.047 663.173l105.429 105.429-29.628 29.628L725.42 692.8z" fill="#595857" p-id="6416"></path></svg>