<?xml version="1.0" standalone="no"?><!DOCTYPE svg PUBLIC "-//W3C//DTD SVG 1.1//EN" "http://www.w3.org/Graphics/SVG/1.1/DTD/svg11.dtd"><svg t="1714703343029" class="icon" viewBox="0 0 1024 1024" version="1.1" xmlns="http://www.w3.org/2000/svg" p-id="1055" xmlns:xlink="http://www.w3.org/1999/xlink" width="128" height="128"><path d="M510.3616 513.1264m-450.816 0a450.816 450.816 0 1 0 901.632 0 450.816 450.816 0 1 0-901.632 0Z" fill="#E9F4FF" p-id="1056"></path><path d="M657.92 341.1968a22.2208 22.2208 0 0 1-22.2208-22.2208V240.64a22.272 22.272 0 0 1 44.4928 0v78.336a22.2208 22.2208 0 0 1-22.272 22.2208z" fill="#59ADF8" p-id="1057"></path><path d="M709.376 258.7136V318.976c0 25.6-25.9072 46.08-51.456 46.08s-51.2-20.48-51.2-46.08V258.4064H417.4848V318.976c0 25.6-25.9072 46.08-51.2 46.08s-51.2-20.48-51.2-46.08V258.5088a90.8288 90.8288 0 0 0-87.04 90.7264v71.168h565.0944v-71.168a90.8288 90.8288 0 0 0-83.7632-90.5216z" fill="#3A9CED" p-id="1058"></path><path d="M366.08 341.1968a22.2208 22.2208 0 0 1-22.272-22.2208V240.64a22.272 22.272 0 0 1 44.4928 0v78.336a22.2208 22.2208 0 0 1-22.2208 22.2208z" fill="#6BC2FC" p-id="1059"></path><path d="M665.2928 364.6464a43.8784 43.8784 0 0 1-7.3728 0.6144c-25.6 0-51.2-20.48-51.2-46.08V258.4064H417.4848V318.976c0 25.6-25.9072 46.08-51.2 46.08s-51.2-20.48-51.2-46.08V258.5088a90.8288 90.8288 0 0 0-87.04 90.7264v71.168h409.9072a446.3104 446.3104 0 0 0 27.3408-55.7568z" fill="#59ADF8" p-id="1060"></path><path d="M510.1056 258.4064H417.4848V318.976c0 25.6-25.9072 46.08-51.2 46.08s-51.2-20.48-51.2-46.08V258.5088a90.8288 90.8288 0 0 0-87.04 90.7264v71.168h112.64a453.4272 453.4272 0 0 0 169.4208-161.9968z" fill="#6BC2FC" p-id="1061"></path><path d="M227.584 465.92v237.7216a90.8288 90.8288 0 0 0 90.7776 90.8288h384a90.8288 90.8288 0 0 0 90.8288-90.8288V465.92zM629.76 596.0704L493.7728 706.56a39.2192 39.2192 0 0 1-24.6784 8.704 36.4544 36.4544 0 0 1-5.7344-0.4096 39.0144 39.0144 0 0 1-26.624-16.7936l-52.224-77.2608a30.72 30.72 0 0 1 50.688-34.4064l38.5536 57.0368 117.1456-95.0784a30.72 30.72 0 1 1 38.7072 47.7184z" fill="#2595E8" p-id="1062"></path><path d="M227.584 465.92v237.7216a90.8288 90.8288 0 0 0 90.7776 90.8288h152.1152a451.6864 451.6864 0 0 0 322.56-281.088V465.92zM629.76 596.0704L493.7728 706.56a39.2192 39.2192 0 0 1-24.6784 8.704 36.4544 36.4544 0 0 1-5.7344-0.4096 39.0144 39.0144 0 0 1-26.624-16.7936l-52.224-77.2608a30.72 30.72 0 0 1 50.688-34.4064l38.5536 57.0368 117.1456-95.0784a30.72 30.72 0 1 1 38.7072 47.7184z" fill="#3A9CED" p-id="1063"></path><path d="M384.512 620.8a30.72 30.72 0 0 1 50.688-34.4064l9.216 13.6192A452.608 452.608 0 0 0 607.7952 465.92H227.584v179.2c6.656 0.3072 13.4144 0.512 20.1728 0.512a450.56 450.56 0 0 0 138.5472-21.8112z" fill="#59ADF8" p-id="1064"></path></svg>