<?xml version="1.0" standalone="no"?><!DOCTYPE svg PUBLIC "-//W3C//DTD SVG 1.1//EN" "http://www.w3.org/Graphics/SVG/1.1/DTD/svg11.dtd"><svg t="1715171698863" class="icon" viewBox="0 0 1024 1024" version="1.1" xmlns="http://www.w3.org/2000/svg" p-id="3605" width="64" height="64" xmlns:xlink="http://www.w3.org/1999/xlink"><path d="M915.154425 730.603146a31.345878 31.345878 0 0 1-22.225913-9.205964c-12.273952-12.273952-12.273952-32.177874 0-44.455826 43.977828-43.977828 68.201734-102.555599 68.201734-164.943356s-24.219905-120.965527-68.197734-164.947356c-12.273952-12.273952-12.273952-32.177874 0-44.455826 12.277952-12.271952 32.175874-12.271952 44.455826 0 55.853782 55.853782 86.611662 130.223491 86.611662 209.401182s-30.75988 153.5454-86.615662 209.397182a31.343878 31.343878 0 0 1-22.229913 9.209964z" fill="#2D527C" p-id="3606"></path><path d="M834.128742 649.577463a31.345878 31.345878 0 0 1-22.225913-9.205964c-12.273952-12.273952-12.273952-32.177874 0-44.455827 46.273819-46.273819 46.273819-121.563525 0-167.835344-12.273952-12.273952-12.273952-32.177874 0-44.455827 12.277952-12.271952 32.175874-12.271952 44.455826 0 70.785723 70.785723 70.785723 185.961274 0 256.744998a31.347878 31.347878 0 0 1-22.229913 9.207964zM95.385627 756.187046C42.789833 756.187046 0 713.401213 0 660.803419V363.192581c0-52.593795 42.787833-95.385627 95.381627-95.385627s95.385627 42.787833 95.385628 95.385627v297.608838c0 52.599795-42.787833 95.385627-95.381628 95.385627z m0-425.508338c-17.92993 0-32.517873 14.587943-32.517873 32.517873v297.608838c0 17.92993 14.587943 32.517873 32.513873 32.517873 17.92993 0 32.513873-14.587943 32.513873-32.517873V363.196581c0.004-17.93193-14.583943-32.517873-32.509873-32.517873z" fill="#2D527C" p-id="3607"></path><path d="M675.127363 982.420162c-10.513959 0-21.047918-2.48399-30.81788-7.48397l-336.620685-172.349327c-15.45194-7.913969-21.563916-26.853895-13.653947-42.305835 7.911969-15.45194 26.849895-21.563916 42.305835-13.653947l336.620685 172.349327c1.291995 0.665997 2.54599 1.109996 4.737982-0.235999 3.287987-2.007992 7.121972-7.385971 7.121972-15.933938V121.193527c0-8.549967-3.833985-13.927946-7.121972-15.933938-2.189991-1.339995-3.445987-0.901996-4.737982-0.235999L175.735314 359.606595c-15.45594 7.917969-34.391866 1.793993-42.305835-13.653946-7.911969-15.45194-1.797993-34.391866 13.653946-42.305835L644.313483 49.063808c21.125917-10.809958 45.873821-9.863961 66.185742 2.56199 22.94391 14.025945 37.191855 40.681841 37.191854 69.567729v781.608946c0 28.883887-14.247944 55.543783-37.191854 69.567729-10.921957 6.683974-23.13391 10.049961-35.371862 10.04996z" fill="#2D527C" p-id="3608"></path><path d="M486.198101 165.335354v693.331292l172.441326 88.289655c27.177894 13.915946 57.617775-9.407963 57.617775-44.151828V121.193527c0-34.743864-30.437881-58.067773-57.617775-44.151828L486.198101 165.335354z" fill="#CEE8FA" p-id="3609"></path><path d="M675.135363 982.474162c-10.677958 0-21.047918-2.53599-30.82388-7.53797l-172.441326-88.289655a31.435877 31.435877 0 0 1-17.109933-27.979891V165.331354a31.439877 31.439877 0 0 1 17.109933-27.979891l172.441326-88.289655c9.771962-5.00398 20.141921-7.537971 30.82388-7.53797 40.007844 0 72.555717 35.73986 72.555716 79.671689v781.606946c0 20.831919-7.203972 40.477842-20.28392 55.315784-13.643947 15.47794-32.695872 24.355905-52.271796 24.355905z m-157.505385-143.029441l155.335393 79.529689c0.833997 0.427998 1.539994 0.631998 2.167992 0.631998 1.489994 0 3.447987-1.169995 5.11198-3.057988 1.709993-1.939992 4.575982-6.305975 4.575982-13.745947V121.193527c0-10.871958-6.399975-16.803934-9.687962-16.803935-0.231999 0-0.935996 0-2.167992 0.631998l-155.335393 79.529689v654.893442z" fill="#2D527C" p-id="3610"></path></svg>